<svg width="349" height="91" viewBox="0 0 349 91" fill="none" xmlns="http://www.w3.org/2000/svg">
<path d="M29.8091 44.9074C32.7699 45.46 35.2038 46.9419 37.1108 49.3531C39.0178 51.7643 39.9713 54.5271 39.9713 57.6416C39.9713 60.4546 39.2687 62.9412 37.8636 65.1012C36.5086 67.211 34.5264 68.8687 31.9168 70.0743C29.3073 71.2799 26.221 71.8827 22.6579 71.8827H0V19.2885H21.6793C25.2424 19.2885 28.3036 19.8662 30.8629 21.0215C33.4725 22.1769 35.4297 23.7844 36.7344 25.8439C38.0894 27.9035 38.7669 30.2393 38.7669 32.8515C38.7669 35.9157 37.9388 38.4776 36.2828 40.5371C34.6769 42.5967 32.519 44.0535 29.8091 44.9074ZM10.5386 40.9892H20.1738C22.683 40.9892 24.6151 40.4367 25.97 39.3315C27.325 38.1762 28.0025 36.5436 28.0025 34.4338C28.0025 32.324 27.325 30.6914 25.97 29.5361C24.6151 28.3807 22.683 27.803 20.1738 27.803H10.5386V40.9892ZM21.1524 63.2928C23.7118 63.2928 25.694 62.69 27.0992 61.4844C28.5545 60.2788 29.2822 58.5709 29.2822 56.3606C29.2822 54.1001 28.5294 52.3419 27.0239 51.0861C25.5184 49.78 23.4859 49.127 20.9266 49.127H10.5386V63.2928H21.1524Z" fill="white"/>
<path d="M45.6605 50.8601C45.6605 46.6405 46.4885 42.8981 48.1445 39.6329C49.8508 36.3678 52.1341 33.8561 54.9946 32.098C57.9053 30.3398 61.1421 29.4607 64.7051 29.4607C67.8165 29.4607 70.5265 30.0886 72.8349 31.3445C75.1935 32.6003 77.0754 34.1826 78.4806 36.0915V30.1389H89.0944V71.8827H78.4806V65.7793C77.1256 67.7384 75.2437 69.371 72.8349 70.6771C70.4763 71.9329 67.7413 72.5608 64.6299 72.5608C61.117 72.5608 57.9053 71.6566 54.9946 69.8482C52.1341 68.0398 49.8508 65.5031 48.1445 62.2379C46.4885 58.9225 45.6605 55.1299 45.6605 50.8601ZM78.4806 51.0108C78.4806 48.4489 77.9787 46.2637 76.9751 44.4553C75.9714 42.5967 74.6164 41.1902 72.9102 40.2357C71.2039 39.2311 69.3722 38.7287 67.4151 38.7287C65.4579 38.7287 63.6513 39.206 61.9952 40.1604C60.3392 41.1148 58.9842 42.5213 57.9304 44.38C56.9267 46.1884 56.4248 48.3484 56.4248 50.8601C56.4248 53.3717 56.9267 55.582 57.9304 57.4909C58.9842 59.3495 60.3392 60.7811 61.9952 61.7858C63.7015 62.7905 65.5081 63.2928 67.4151 63.2928C69.3722 63.2928 71.2039 62.8156 72.9102 61.8611C74.6164 60.8565 75.9714 59.45 76.9751 57.6416C77.9787 55.7829 78.4806 53.5727 78.4806 51.0108Z" fill="white"/>
<path d="M122.497 29.5361C127.465 29.5361 131.48 31.1184 134.541 34.2831C137.602 37.3976 139.133 41.7679 139.133 47.394V71.8827H128.594V48.8256C128.594 45.5102 127.766 42.9734 126.11 41.2153C124.454 39.4069 122.196 38.5027 119.335 38.5027C116.424 38.5027 114.116 39.4069 112.41 41.2153C110.754 42.9734 109.926 45.5102 109.926 48.8256V71.8827H99.3871V30.1389H109.926V35.338C111.331 33.5296 113.112 32.1231 115.27 31.1184C117.478 30.0635 119.887 29.5361 122.497 29.5361Z" fill="white"/>
<path d="M173.845 71.8827L159.693 54.1001V71.8827H149.154V16.1238H159.693V47.8461L173.694 30.1389H187.394L169.027 51.0861L187.545 71.8827H173.845Z" fill="white"/>
<path d="M204.857 91H194.243V0H204.857V91Z" fill="white"/>
<path d="M215.29 31.4198C215.541 26.3965 217.297 22.5285 220.559 19.8159C223.871 17.0531 228.212 15.6717 233.582 15.6717C237.245 15.6717 240.381 16.3247 242.991 17.6308C245.601 18.8866 247.558 20.6197 248.862 22.8299C250.217 24.99 250.895 27.4514 250.895 30.2142C250.895 33.3789 250.067 36.0664 248.411 38.2766C246.805 40.4367 244.873 41.8934 242.615 42.6469V42.9483C245.525 43.8525 247.784 45.46 249.389 47.7707C251.045 50.0815 251.874 53.0452 251.874 56.662C251.874 59.676 251.171 62.3635 249.766 64.7244C248.411 67.0854 246.378 68.944 243.668 70.3003C241.009 71.6064 237.797 72.2594 234.033 72.2594C228.362 72.2594 223.746 70.8278 220.183 67.9645C216.619 65.1012 214.738 60.8816 214.537 55.3057H224.774C224.875 57.7671 225.703 59.7514 227.258 61.2583C228.864 62.7151 231.047 63.4435 233.807 63.4435C236.367 63.4435 238.324 62.7402 239.679 61.3337C241.084 59.8769 241.787 58.0183 241.787 55.7578C241.787 52.7438 240.833 50.5838 238.926 49.2777C237.019 47.9717 234.058 47.3186 230.044 47.3186H227.861V38.6534H230.044C237.17 38.6534 240.733 36.2673 240.733 31.4952C240.733 29.3351 240.08 27.6523 238.776 26.4467C237.521 25.2411 235.689 24.6383 233.28 24.6383C230.922 24.6383 229.09 25.2914 227.785 26.5974C226.531 27.8532 225.803 29.4607 225.602 31.4198H215.29Z" fill="white"/>
<path d="M288.656 30.6663C288.154 28.5565 287.275 26.9742 286.021 25.9193C284.816 24.8644 283.06 24.3369 280.752 24.3369C277.289 24.3369 274.73 25.7434 273.074 28.5565C271.468 31.3193 270.64 35.8403 270.589 42.1195C271.794 40.1102 273.55 38.5529 275.859 37.4478C278.167 36.2924 280.676 35.7147 283.386 35.7147C286.648 35.7147 289.534 36.418 292.043 37.8245C294.552 39.2311 296.509 41.2906 297.914 44.0032C299.32 46.6656 300.022 49.8805 300.022 53.648C300.022 57.2146 299.294 60.4044 297.839 63.2174C296.434 65.9803 294.351 68.1403 291.591 69.6975C288.831 71.2548 285.544 72.0334 281.73 72.0334C276.511 72.0334 272.396 70.878 269.385 68.5673C266.424 66.2565 264.342 63.0416 263.137 58.9225C261.983 54.7531 261.406 49.6294 261.406 43.5511C261.406 34.3585 262.987 27.4263 266.148 22.7546C269.31 18.0326 274.303 15.6717 281.128 15.6717C286.397 15.6717 290.487 17.1033 293.398 19.9666C296.309 22.8299 297.99 26.3965 298.441 30.6663H288.656ZM280.977 44.38C278.318 44.38 276.085 45.1586 274.278 46.7158C272.471 48.2731 271.568 50.5336 271.568 53.4973C271.568 56.4611 272.396 58.7969 274.052 60.5048C275.758 62.2128 278.142 63.0667 281.203 63.0667C283.913 63.0667 286.046 62.2379 287.602 60.5802C289.208 58.9225 290.011 56.6871 290.011 53.8741C290.011 50.9605 289.233 48.6498 287.677 46.9419C286.171 45.2339 283.938 44.38 280.977 44.38Z" fill="white"/>
<path d="M308.351 43.7018C308.351 35.0115 309.907 28.2049 313.018 23.282C316.18 18.3592 321.399 15.8977 328.676 15.8977C335.952 15.8977 341.146 18.3592 344.258 23.282C347.419 28.2049 349 35.0115 349 43.7018C349 52.4424 347.419 59.2992 344.258 64.2723C341.146 69.2454 335.952 71.732 328.676 71.732C321.399 71.732 316.18 69.2454 313.018 64.2723C309.907 59.2992 308.351 52.4424 308.351 43.7018ZM338.612 43.7018C338.612 39.9846 338.361 36.8701 337.859 34.3585C337.408 31.7966 336.454 29.7119 334.999 28.1044C333.594 26.497 331.486 25.6932 328.676 25.6932C325.865 25.6932 323.733 26.497 322.277 28.1044C320.872 29.7119 319.919 31.7966 319.417 34.3585C318.965 36.8701 318.739 39.9846 318.739 43.7018C318.739 47.5196 318.965 50.7345 319.417 53.3466C319.868 55.9085 320.822 57.9932 322.277 59.6007C323.733 61.1579 325.865 61.9365 328.676 61.9365C331.486 61.9365 333.619 61.1579 335.074 59.6007C336.529 57.9932 337.483 55.9085 337.935 53.3466C338.386 50.7345 338.612 47.5196 338.612 43.7018Z" fill="white"/>
</svg>
