<svg width="1011" height="638" viewBox="0 0 1011 638" fill="none" xmlns="http://www.w3.org/2000/svg">
<rect width="1011" height="638" rx="38" fill="black"/>
<g opacity="0.5">
<line y1="3" x2="1011" y2="3" stroke="white" stroke-opacity="0.2" stroke-width="2"/>
<line y1="17" x2="1011" y2="17" stroke="white" stroke-opacity="0.2" stroke-width="2"/>
<line y1="31" x2="1011" y2="31" stroke="white" stroke-opacity="0.2" stroke-width="2"/>
<line y1="45" x2="1011" y2="45" stroke="white" stroke-opacity="0.2" stroke-width="2"/>
<line y1="59" x2="1011" y2="59" stroke="white" stroke-opacity="0.2" stroke-width="2"/>
<line y1="73" x2="1011" y2="73" stroke="white" stroke-opacity="0.2" stroke-width="2"/>
<line y1="87" x2="1011" y2="87" stroke="white" stroke-opacity="0.2" stroke-width="2"/>
<line y1="101" x2="1011" y2="101" stroke="white" stroke-opacity="0.2" stroke-width="2"/>
<line y1="115" x2="1011" y2="115" stroke="white" stroke-opacity="0.2" stroke-width="2"/>
<line y1="129" x2="1011" y2="129" stroke="white" stroke-opacity="0.2" stroke-width="2"/>
<line y1="143" x2="1011" y2="143" stroke="white" stroke-opacity="0.2" stroke-width="2"/>
<line y1="157" x2="1011" y2="157" stroke="white" stroke-opacity="0.2" stroke-width="2"/>
<line y1="171" x2="1011" y2="171" stroke="white" stroke-opacity="0.2" stroke-width="2"/>
<line y1="185" x2="1011" y2="185" stroke="white" stroke-opacity="0.2" stroke-width="2"/>
<line y1="199" x2="1011" y2="199" stroke="white" stroke-opacity="0.2" stroke-width="2"/>
<line y1="213" x2="1011" y2="213" stroke="white" stroke-opacity="0.2" stroke-width="2"/>
<line y1="227" x2="1011" y2="227" stroke="white" stroke-opacity="0.2" stroke-width="2"/>
<line y1="241" x2="1011" y2="241" stroke="white" stroke-opacity="0.2" stroke-width="2"/>
<line y1="255" x2="1011" y2="255" stroke="white" stroke-opacity="0.2" stroke-width="2"/>
<line y1="269" x2="1011" y2="269" stroke="white" stroke-opacity="0.2" stroke-width="2"/>
<line y1="283" x2="1011" y2="283" stroke="white" stroke-opacity="0.2" stroke-width="2"/>
<line y1="297" x2="1011" y2="297" stroke="white" stroke-opacity="0.2" stroke-width="2"/>
<line y1="311" x2="1011" y2="311" stroke="white" stroke-opacity="0.2" stroke-width="2"/>
<line y1="325" x2="1011" y2="325" stroke="white" stroke-opacity="0.2" stroke-width="2"/>
<line y1="339" x2="1011" y2="339" stroke="white" stroke-opacity="0.2" stroke-width="2"/>
<line y1="353" x2="1011" y2="353" stroke="white" stroke-opacity="0.2" stroke-width="2"/>
<line y1="367" x2="1011" y2="367" stroke="white" stroke-opacity="0.2" stroke-width="2"/>
<line y1="381" x2="1011" y2="381" stroke="white" stroke-opacity="0.2" stroke-width="2"/>
<line y1="395" x2="1011" y2="395" stroke="white" stroke-opacity="0.2" stroke-width="2"/>
<line y1="409" x2="1011" y2="409" stroke="white" stroke-opacity="0.2" stroke-width="2"/>
<line y1="423" x2="1011" y2="423" stroke="white" stroke-opacity="0.2" stroke-width="2"/>
<line y1="437" x2="1011" y2="437" stroke="white" stroke-opacity="0.2" stroke-width="2"/>
<line y1="451" x2="1011" y2="451" stroke="white" stroke-opacity="0.2" stroke-width="2"/>
<line y1="465" x2="1011" y2="465" stroke="white" stroke-opacity="0.2" stroke-width="2"/>
<line y1="479" x2="1011" y2="479" stroke="white" stroke-opacity="0.2" stroke-width="2"/>
<line y1="493" x2="1011" y2="493" stroke="white" stroke-opacity="0.2" stroke-width="2"/>
<line y1="507" x2="1011" y2="507" stroke="white" stroke-opacity="0.2" stroke-width="2"/>
<line y1="521" x2="1011" y2="521" stroke="white" stroke-opacity="0.2" stroke-width="2"/>
<line y1="535" x2="1011" y2="535" stroke="white" stroke-opacity="0.2" stroke-width="2"/>
<line y1="549" x2="1011" y2="549" stroke="white" stroke-opacity="0.2" stroke-width="2"/>
<line y1="563" x2="1011" y2="563" stroke="white" stroke-opacity="0.2" stroke-width="2"/>
<line y1="577" x2="1011" y2="577" stroke="white" stroke-opacity="0.2" stroke-width="2"/>
<line y1="591" x2="1011" y2="591" stroke="white" stroke-opacity="0.2" stroke-width="2"/>
<line y1="605" x2="1011" y2="605" stroke="white" stroke-opacity="0.2" stroke-width="2"/>
<line y1="619" x2="1011" y2="619" stroke="white" stroke-opacity="0.2" stroke-width="2"/>
<line y1="633" x2="1011" y2="633" stroke="white" stroke-opacity="0.2" stroke-width="2"/>
</g>
</svg>
