<svg width="220" height="110" viewBox="0 0 220 110" fill="none" xmlns="http://www.w3.org/2000/svg">
<path d="M128.887 20.4123H91.0008V89.5877H128.887V20.4123Z" fill="#FF5A00"/>
<path d="M93.5228 55C93.5228 40.9456 100.024 28.4718 110 20.4123C102.658 14.5456 93.3967 11 83.2946 11C59.3635 11 40 30.679 40 55C40 79.321 59.3635 99 83.2946 99C93.3967 99 102.658 95.4544 110 89.5877C100.01 81.6421 93.5228 69.0544 93.5228 55Z" fill="#EB001B"/>
<path d="M180 55C180 79.321 160.637 99 136.705 99C126.603 99 117.342 95.4544 110 89.5877C120.102 81.5139 126.477 69.0544 126.477 55C126.477 40.9456 119.976 28.4718 110 20.4123C117.328 14.5456 126.589 11 136.691 11C160.637 11 180 30.8071 180 55Z" fill="#F79E1B"/>
</svg>
