<svg width="220" height="110" viewBox="0 0 220 110" fill="none" xmlns="http://www.w3.org/2000/svg">
<g clip-path="url(#clip0_305_670)">
<path d="M97.1665 84.1344H82.1802L91.5537 26.0528H106.539L97.1665 84.1344Z" fill="white"/>
<path d="M151.493 27.4727C148.537 26.2975 143.849 25 138.052 25C123.252 25 112.831 32.9086 112.767 44.2154C112.644 52.5576 120.228 57.1911 125.901 59.9726C131.699 62.8149 133.67 64.6701 133.67 67.2037C133.611 71.0947 128.985 72.8883 124.67 72.8883C118.687 72.8883 115.481 71.9636 110.609 69.7988L108.635 68.8708L106.538 81.9088C110.053 83.5136 116.529 84.9376 123.252 85C138.977 85 149.214 77.2138 149.335 65.1645C149.395 58.5527 145.39 53.4864 136.756 49.3466C131.514 46.689 128.304 44.8971 128.304 42.1779C128.366 39.706 131.019 37.1741 136.936 37.1741C141.808 37.0501 145.388 38.2236 148.1 39.398L149.455 40.0148L151.493 27.4727Z" fill="white"/>
<path d="M171.411 63.5582C172.645 60.2214 177.394 47.3074 177.394 47.3074C177.332 47.4314 178.626 43.9091 179.366 41.7468L180.413 46.7514C180.413 46.7514 183.251 60.6542 183.868 63.5582C181.526 63.5582 174.371 63.5582 171.411 63.5582ZM189.91 26.0528H178.318C174.743 26.0528 172.027 27.1024 170.485 30.8719L148.225 84.1336H163.95C163.95 84.1336 166.538 76.9649 167.095 75.421C168.82 75.421 184.117 75.421 186.336 75.421C186.766 77.4602 188.124 84.1336 188.124 84.1336H202L189.91 26.0528Z" fill="white"/>
<path d="M69.6631 26.0528L54.9865 65.6589L53.3828 57.6263C50.6694 48.3578 42.1596 38.2877 32.6632 33.2806L46.1064 84.0728H61.954L85.5098 26.0528H69.6631Z" fill="white"/>
<path d="M41.3582 26.0528H17.2467L17 27.2264C35.8085 32.0462 48.265 43.6644 53.3828 57.6288L48.1412 30.9351C47.2783 27.2255 44.6263 26.1752 41.3582 26.0528Z" fill="white"/>
</g>
<defs>
<clipPath id="clip0_305_670">
<rect width="185" height="60" fill="white" transform="translate(17 25)"/>
</clipPath>
</defs>
</svg>
